<svg width="349" height="256" viewBox="0 0 349 256" fill="none" xmlns="http://www.w3.org/2000/svg">
<path d="M370.532 58.8706C371.906 52.3006 372.629 45.4912 372.629 38.5129C372.629 -16.1167 328.343 -60.4027 273.713 -60.4027C227.774 -60.4027 189.15 -29.0865 178.023 13.3625C169.758 28.1914 145.014 57.8493 112.163 57.8493H99.3209C73.494 57.8493 49.9789 67.7475 32.3622 83.9574C12.7158 102.035 0.405273 127.962 0.405273 156.765C0.405273 211.395 44.6913 255.681 99.3209 255.681H384.798C439.428 255.681 483.714 211.395 483.714 156.765C483.714 102.135 439.428 57.8493 384.798 57.8493C379.954 57.8493 375.19 58.1976 370.532 58.8706Z" fill="#D0D0D0"/>
</svg>
