<svg width="20" height="19" viewBox="0 0 20 19" fill="none" xmlns="http://www.w3.org/2000/svg">
<path d="M7.69335 17.3925C8.11249 17.3925 8.45226 17.0527 8.45226 16.6336C8.45226 16.2144 8.11249 15.8747 7.69335 15.8747C7.27422 15.8747 6.93445 16.2144 6.93445 16.6336C6.93445 17.0527 7.27422 17.3925 7.69335 17.3925Z" stroke="#F8964C" stroke-width="2" stroke-linecap="round" stroke-linejoin="round"/>
<path d="M16.04 17.3925C16.4591 17.3925 16.7989 17.0527 16.7989 16.6336C16.7989 16.2144 16.4591 15.8747 16.04 15.8747C15.6209 15.8747 15.2811 16.2144 15.2811 16.6336C15.2811 17.0527 15.6209 17.3925 16.04 17.3925Z" stroke="#F8964C" stroke-width="2" stroke-linecap="round" stroke-linejoin="round"/>
<path d="M1.62012 1.45523H4.65574L6.68961 11.617C6.75901 11.9664 6.94909 12.2802 7.22658 12.5036C7.50406 12.727 7.85127 12.8457 8.20743 12.8388H15.584C15.9402 12.8457 16.2874 12.727 16.5649 12.5036C16.8423 12.2802 17.0324 11.9664 17.1018 11.617L18.3161 5.24976H5.41465" stroke="#F8964C" stroke-width="2" stroke-linecap="round" stroke-linejoin="round"/>
</svg>
