<svg width="36" height="36" viewBox="0 0 36 36" fill="none" xmlns="http://www.w3.org/2000/svg">
<path d="M32.6479 17.5918C31.314 11.5613 29.3066 8.34267 26.3288 7.46348C25.7029 7.27988 25.0536 7.18815 24.4013 7.19117C23.5391 7.19117 22.7882 7.40122 21.9939 7.62385C21.0367 7.89239 19.9494 8.1974 18.3639 8.1974C16.7785 8.1974 15.6905 7.89302 14.7315 7.62448C13.9365 7.40122 13.1863 7.19117 12.3266 7.19117C11.652 7.18883 10.9805 7.28027 10.3311 7.46285C7.36902 8.33827 5.36286 11.5557 4.00949 17.588C2.55423 24.0794 3.27054 28.1779 6.01817 29.1288C6.3948 29.2615 6.79108 29.33 7.19042 29.3313C9.07269 29.3313 10.582 27.7635 11.6134 26.4799C12.7787 25.0272 14.1428 24.2901 18.3639 24.2901C22.1341 24.2901 23.6944 24.8014 25.0421 26.4799C25.8892 27.5352 26.6898 28.2735 27.4885 28.7382C28.5507 29.3558 29.6123 29.4929 30.643 29.1388C32.2668 28.5848 33.1976 27.1201 33.4101 24.7844C33.5718 22.9933 33.3227 20.6406 32.6479 17.5918ZM15.3452 17.2534H13.3328V19.2659C13.3328 19.5327 13.2268 19.7887 13.0381 19.9774C12.8494 20.1661 12.5934 20.2721 12.3266 20.2721C12.0597 20.2721 11.8038 20.1661 11.6151 19.9774C11.4264 19.7887 11.3203 19.5327 11.3203 19.2659V17.2534H9.3079C9.04103 17.2534 8.78509 17.1474 8.59639 16.9587C8.40768 16.77 8.30167 16.5141 8.30167 16.2472C8.30167 15.9803 8.40768 15.7244 8.59639 15.5357C8.78509 15.347 9.04103 15.241 9.3079 15.241H11.3203V13.2285C11.3203 12.9617 11.4264 12.7057 11.6151 12.517C11.8038 12.3283 12.0597 12.2223 12.3266 12.2223C12.5934 12.2223 12.8494 12.3283 13.0381 12.517C13.2268 12.7057 13.3328 12.9617 13.3328 13.2285V15.241H15.3452C15.6121 15.241 15.8681 15.347 16.0568 15.5357C16.2455 15.7244 16.3515 15.9803 16.3515 16.2472C16.3515 16.5141 16.2455 16.77 16.0568 16.9587C15.8681 17.1474 15.6121 17.2534 15.3452 17.2534ZM20.6279 17.505C20.3792 17.505 20.136 17.4312 19.9291 17.293C19.7223 17.1548 19.5611 16.9584 19.4659 16.7285C19.3707 16.4987 19.3458 16.2458 19.3943 16.0018C19.4429 15.7578 19.5626 15.5337 19.7385 15.3578C19.9144 15.1819 20.1386 15.0621 20.3826 15.0136C20.6265 14.9651 20.8794 14.99 21.1093 15.0852C21.3391 15.1804 21.5355 15.3416 21.6737 15.5484C21.8119 15.7553 21.8857 15.9984 21.8857 16.2472C21.8857 16.5808 21.7532 16.9007 21.5173 17.1366C21.2814 17.3725 20.9615 17.505 20.6279 17.505ZM23.3951 20.2721C23.1462 20.2721 22.9029 20.1983 22.6959 20.0599C22.489 19.9216 22.3278 19.7249 22.2327 19.4949C22.1376 19.2649 22.1129 19.0119 22.1617 18.7678C22.2105 18.5237 22.3306 18.2996 22.5068 18.1238C22.683 17.948 22.9074 17.8285 23.1516 17.7803C23.3958 17.7322 23.6488 17.7575 23.8786 17.8532C24.1083 17.9489 24.3046 18.1106 24.4424 18.3178C24.5802 18.5251 24.6535 18.7686 24.6528 19.0175C24.652 19.3505 24.5191 19.6696 24.2833 19.9048C24.0475 20.14 23.7281 20.2721 23.3951 20.2721ZM23.3951 14.7379C23.1463 14.7379 22.9031 14.6641 22.6963 14.5259C22.4894 14.3877 22.3282 14.1912 22.233 13.9614C22.1378 13.7316 22.1129 13.4787 22.1614 13.2347C22.21 12.9907 22.3298 12.7666 22.5057 12.5907C22.6816 12.4148 22.9057 12.295 23.1497 12.2465C23.3937 12.1979 23.6466 12.2228 23.8764 12.318C24.1062 12.4132 24.3027 12.5745 24.4409 12.7813C24.5791 12.9881 24.6528 13.2313 24.6528 13.4801C24.6528 13.8137 24.5203 14.1336 24.2844 14.3695C24.0486 14.6053 23.7286 14.7379 23.3951 14.7379ZM26.1622 17.505C25.9134 17.505 25.6702 17.4312 25.4634 17.293C25.2565 17.1548 25.0953 16.9584 25.0001 16.7285C24.9049 16.4987 24.88 16.2458 24.9286 16.0018C24.9771 15.7578 25.0969 15.5337 25.2728 15.3578C25.4487 15.1819 25.6728 15.0621 25.9168 15.0136C26.1608 14.9651 26.4137 14.99 26.6435 15.0852C26.8733 15.1804 27.0698 15.3416 27.208 15.5484C27.3462 15.7553 27.42 15.9984 27.42 16.2472C27.42 16.5808 27.2874 16.9007 27.0516 17.1366C26.8157 17.3725 26.4958 17.505 26.1622 17.505Z" fill="url(#paint0_linear)"/>
<defs>
<linearGradient id="paint0_linear" x1="18.3652" y1="7.1911" x2="18.3652" y2="29.3313" gradientUnits="userSpaceOnUse">
<stop stop-color="#22B04A"/>
<stop offset="1" stop-color="#1E9540"/>
</linearGradient>
</defs>
</svg>
