<svg width="36" height="36" viewBox="0 0 36 36" fill="none" xmlns="http://www.w3.org/2000/svg">
<path d="M17.6016 5.42758C16.9016 5.42758 16.6682 5.89425 16.2016 6.36092L2.66822 28.5276C2.43489 28.7609 2.43489 29.2276 2.43489 29.4609C2.43489 30.6276 3.36822 31.0942 4.06822 31.0942H31.1349C32.0682 31.0942 32.7682 30.6276 32.7682 29.4609C32.7682 28.9943 32.7682 28.9942 32.5349 28.5276L19.2349 6.36092C18.7682 5.89425 18.3016 5.42758 17.6016 5.42758ZM17.6016 8.92758L25.3016 21.7609H23.4349L19.9349 18.2609L17.6016 21.7609L15.2682 18.2609L11.7682 21.7609H9.66822L17.6016 8.92758Z" fill="url(#paint0_linear)"/>
<defs>
<linearGradient id="paint0_linear" x1="17.6016" y1="5.42758" x2="17.6016" y2="31.0942" gradientUnits="userSpaceOnUse">
<stop stop-color="#7CB4F9"/>
<stop offset="1" stop-color="#6DA2E4"/>
</linearGradient>
</defs>
</svg>
