<svg width="25" height="25" viewBox="0 0 25 25" fill="none" xmlns="http://www.w3.org/2000/svg">
<path d="M12.7562 11.4596L7.24725 16.9696L5.37725 16.1926L5.21025 16.3616L7.59025 17.9486L9.17825 20.3286L9.34625 20.1606L8.57025 18.2906L14.0792 12.7826L18.4072 19.0346L18.6172 18.8266L15.7302 11.1306L20.1302 6.7326C20.2964 6.55529 20.387 6.32034 20.383 6.07742C20.3791 5.83449 20.2808 5.60262 20.109 5.43083C19.9372 5.25903 19.7054 5.16076 19.4624 5.1568C19.2195 5.15284 18.9846 5.24349 18.8072 5.4096L14.4072 9.8086L6.71325 6.9226L6.50325 7.1316L12.7562 11.4596ZM18.1462 21.9426L13.8162 15.6896L10.7762 18.7296L11.5532 20.5996L8.88725 23.2646L6.24225 19.2976L2.27425 16.6516L4.94025 13.9856L6.80925 14.7616L9.84925 11.7216L3.59625 7.3936L6.24225 4.7486L13.9372 7.6336L17.4842 4.0866C17.7436 3.82092 18.0532 3.60937 18.395 3.46421C18.7367 3.31905 19.1039 3.24316 19.4752 3.24094C19.8465 3.23872 20.2145 3.31022 20.558 3.45129C20.9015 3.59236 21.2135 3.80019 21.4761 4.06275C21.7387 4.3253 21.9465 4.63736 22.0876 4.98083C22.2286 5.3243 22.3001 5.69235 22.2979 6.06365C22.2957 6.43496 22.2198 6.80213 22.0746 7.14389C21.9295 7.48565 21.7179 7.7952 21.4522 8.0546L17.9052 11.6016L20.7912 19.2976L18.1452 21.9426H18.1462Z" fill="#70A6E8"/>
</svg>
