<svg width="36" height="36" viewBox="0 0 36 36" fill="none" xmlns="http://www.w3.org/2000/svg">
<path d="M28.8085 23.6445L23.8894 18.717V15.0635C23.8901 14.9525 23.8688 14.8424 23.8268 14.7396C23.7848 14.6368 23.7229 14.5433 23.6447 14.4645L15.2072 6.02695C15.1288 5.94787 15.0355 5.8851 14.9326 5.84226C14.8298 5.79943 14.7195 5.77737 14.6082 5.77737C14.4968 5.77737 14.3865 5.79943 14.2837 5.84226C14.1809 5.8851 14.0875 5.94787 14.0091 6.02695L6.41535 13.6207C6.33627 13.6991 6.2735 13.7925 6.23066 13.8953C6.18783 13.9981 6.16577 14.1084 6.16577 14.2198C6.16577 14.3312 6.18783 14.4414 6.23066 14.5443C6.2735 14.6471 6.33627 14.7404 6.41535 14.8188L14.8529 23.2563C14.9317 23.3345 15.0252 23.3964 15.128 23.4384C15.2308 23.4804 15.3409 23.5017 15.4519 23.501H19.1138L24.0329 28.4285C24.6661 29.0618 25.5251 29.4176 26.4207 29.4176C27.3163 29.4176 28.1752 29.0618 28.8085 28.4285C29.4418 27.7952 29.7975 26.9363 29.7975 26.0407C29.7975 25.1451 29.4418 24.2862 28.8085 23.6529V23.6445ZM9.54566 12.8782L11.4779 14.8188L12.676 13.6207L10.7354 11.6885L12.0769 10.347L15.6966 13.9751L16.8947 12.777L13.2666 9.15727L14.6082 7.8157L20.1685 13.376L13.7644 19.7801L8.2041 14.2198L9.54566 12.8782ZM27.6103 27.222C27.2942 27.5363 26.8665 27.7127 26.4207 27.7127C25.9748 27.7127 25.5471 27.5363 25.231 27.222L20.0588 22.0582C19.879 21.9346 19.6747 21.8511 19.4597 21.8135H15.7979L14.9541 20.9698L21.3582 14.5657L22.2019 15.4095V19.0713C22.2028 19.2927 22.2907 19.5048 22.4466 19.662L27.6103 24.8426C27.9246 25.1588 28.1011 25.5865 28.1011 26.0323C28.1011 26.4781 27.9246 26.9058 27.6103 27.222Z" fill="url(#paint0_linear)"/>
<path d="M27.6103 27.222C27.2942 27.5363 26.8665 27.7127 26.4207 27.7127C25.9748 27.7127 25.5471 27.5363 25.231 27.222L20.0588 22.0582C19.879 21.9346 19.6747 21.8511 19.4597 21.8135H15.7979L14.9541 20.9698L21.3582 14.5657L22.2019 15.4095V19.0713C22.2028 19.2927 22.2907 19.5048 22.4466 19.662L27.6103 24.8426C27.9246 25.1588 28.1011 25.5865 28.1011 26.0323C28.1011 26.4781 27.9246 26.9058 27.6103 27.222Z" fill="url(#paint1_linear)"/>
<defs>
<linearGradient id="paint0_linear" x1="17.9817" y1="5.77737" x2="17.9817" y2="29.4176" gradientUnits="userSpaceOnUse">
<stop stop-color="#FFA764"/>
<stop offset="1" stop-color="#F17F29"/>
</linearGradient>
<linearGradient id="paint1_linear" x1="17.9817" y1="5.77737" x2="17.9817" y2="29.4176" gradientUnits="userSpaceOnUse">
<stop stop-color="#FFA764"/>
<stop offset="1" stop-color="#F17F29"/>
</linearGradient>
</defs>
</svg>
