<svg xmlns="http://www.w3.org/2000/svg" viewBox="0 0 447.907 447.907">
    <path d="M432.703 206.904l-30.5-13.2-25.9-50.4c-7-13.8-21.2-22.4-36.7-22.3h-44.6v-12.6c0-22.8-18.2-41.4-41-41.4h-213.2c-22.8 0-40.8 18.7-40.8 41.4v193c-.2 13.9 10.9 25.3 24.8 25.5h5.7c0 1-.1 1.4-.1 2-.1 28.6 23 51.9 51.6 52 28.6.1 51.9-23 52-51.6v-.5c0-.7 0-1-.1-2h172.3v2c-.1 28.6 23 51.9 51.6 52 28.6.1 51.9-23 52-51.6v-.5-2h12.9c13.9 0 25.2-11.3 25.2-25.2v-71.4c.2-9.8-5.8-19.1-15.2-23.2zm-350.4 154.1c-17.6 0-31.8-14.2-31.8-31.8s14.2-31.8 31.8-31.8 31.8 14.2 31.8 31.8c0 17.5-14.3 31.8-31.8 31.8zm192.7-53.9h-145.8c-8.4-18.3-26.8-30-46.9-29.9-20.2-.1-38.5 11.5-46.9 29.9h-10.2c-3.1 0-5.2-2.4-5.2-5.5v-51.5h255v57zm0-198.6v121.6h-255v-121.6c0-11.7 9.1-21.4 20.8-21.4h213.2c11.7.1 21.1 9.7 21 21.3v.1zm20 32.6h44.6c7.9-.1 15.3 4.2 19 11.3l20 38.7h-83.6v-50zm63.1 219.9c-17.6 0-31.8-14.2-31.8-31.8s14.2-31.8 31.8-31.8 31.8 14.2 31.8 31.8c0 17.5-14.2 31.8-31.8 31.8zm69.9-59.4c0 3.1-2.1 5.5-5.2 5.5h-17.8c-12.1-25.9-42.9-37.1-68.8-25-11 5.1-19.9 14-25 25h-16.2v-96h98l31.8 14c2 1 3.3 3.2 3.2 5.4v71.1z"/>
</svg>
